<svg width="14" height="14" viewBox="0 0 14 14" fill="none" xmlns="http://www.w3.org/2000/svg">
<path d="M9.66732 11.6663H4.33398V12.6663C4.33398 12.9316 4.22863 13.1859 4.04109 13.3734C3.85355 13.561 3.5992 13.6663 3.33398 13.6663H2.66732C2.4021 13.6663 2.14775 13.561 1.96021 13.3734C1.77267 13.1859 1.66732 12.9316 1.66732 12.6663V11.553C1.27727 11.415 0.939598 11.1595 0.700811 10.8216C0.462024 10.4837 0.333865 10.0801 0.333984 9.66634V7.66634C0.333984 7.25301 0.459318 6.86901 0.673984 6.55034L1.39798 2.01701C1.47317 1.54713 1.71343 1.11946 2.0756 0.810803C2.43777 0.502149 2.89813 0.332741 3.37398 0.333008H10.6273C11.1028 0.333401 11.5626 0.50319 11.9242 0.811922C12.2859 1.12065 12.5257 1.54813 12.6007 2.01767L13.3227 6.54434C13.54 6.86434 13.6667 7.25101 13.6667 7.66634V9.66634C13.6668 10.0801 13.5386 10.4837 13.2998 10.8216C13.061 11.1595 12.7234 11.415 12.3333 11.553V12.6663C12.3333 12.9316 12.228 13.1859 12.0404 13.3734C11.8529 13.561 11.5985 13.6663 11.3333 13.6663H10.6667C10.4014 13.6663 10.1471 13.561 9.95955 13.3734C9.77201 13.1859 9.66665 12.9316 9.66665 12.6663V11.6663H9.66732ZM2.33398 10.333H11.6673C11.8441 10.333 12.0137 10.2628 12.1387 10.1377C12.2637 10.0127 12.334 9.84315 12.334 9.66634V7.66634C12.334 7.48953 12.2637 7.31996 12.1387 7.19494C12.0137 7.06991 11.8441 6.99967 11.6673 6.99967H2.33398C2.15717 6.99967 1.9876 7.06991 1.86258 7.19494C1.73756 7.31996 1.66732 7.48953 1.66732 7.66634V9.66634C1.66732 9.84315 1.73756 10.0127 1.86258 10.1377C1.9876 10.2628 2.15717 10.333 2.33398 10.333ZM11.834 5.67301L11.2847 2.22767C11.2596 2.07128 11.1797 1.9289 11.0593 1.82604C10.9388 1.72318 10.7857 1.66657 10.6273 1.66634H3.37332C3.2147 1.66625 3.06125 1.72272 2.94052 1.82561C2.8198 1.92849 2.73971 2.07105 2.71465 2.22767L2.16465 5.67367C2.22097 5.66887 2.27746 5.66642 2.33398 5.66634H11.6673C11.7233 5.66634 11.7793 5.66834 11.834 5.67301ZM10.6673 8.33301C10.5789 8.33301 10.4941 8.36813 10.4316 8.43064C10.3691 8.49315 10.334 8.57794 10.334 8.66634C10.334 8.75475 10.3691 8.83953 10.4316 8.90204C10.4941 8.96456 10.5789 8.99967 10.6673 8.99967C10.7557 8.99967 10.8405 8.96456 10.903 8.90204C10.9655 8.83953 11.0007 8.75475 11.0007 8.66634C11.0007 8.57794 10.9655 8.49315 10.903 8.43064C10.8405 8.36813 10.7557 8.33301 10.6673 8.33301ZM10.6673 9.66634C10.536 9.66634 10.406 9.64048 10.2846 9.59022C10.1633 9.53997 10.0531 9.46631 9.96021 9.37345C9.86735 9.28059 9.79369 9.17035 9.74344 9.04902C9.69318 8.9277 9.66732 8.79766 9.66732 8.66634C9.66732 8.53502 9.69318 8.40498 9.74344 8.28366C9.79369 8.16233 9.86735 8.05209 9.96021 7.95923C10.0531 7.86637 10.1633 7.79272 10.2846 7.74246C10.406 7.69221 10.536 7.66634 10.6673 7.66634C10.9325 7.66634 11.1869 7.7717 11.3744 7.95923C11.562 8.14677 11.6673 8.40112 11.6673 8.66634C11.6673 8.93156 11.562 9.18591 11.3744 9.37345C11.1869 9.56098 10.9325 9.66634 10.6673 9.66634ZM3.33398 8.33301C3.24558 8.33301 3.16079 8.36813 3.09828 8.43064C3.03577 8.49315 3.00065 8.57794 3.00065 8.66634C3.00065 8.75475 3.03577 8.83953 3.09828 8.90204C3.16079 8.96456 3.24558 8.99967 3.33398 8.99967C3.42239 8.99967 3.50717 8.96456 3.56969 8.90204C3.6322 8.83953 3.66732 8.75475 3.66732 8.66634C3.66732 8.57794 3.6322 8.49315 3.56969 8.43064C3.50717 8.36813 3.42239 8.33301 3.33398 8.33301ZM3.33398 9.66634C3.20266 9.66634 3.07263 9.64048 2.9513 9.59022C2.82998 9.53997 2.71974 9.46631 2.62688 9.37345C2.53402 9.28059 2.46036 9.17035 2.4101 9.04902C2.35985 8.9277 2.33398 8.79766 2.33398 8.66634C2.33398 8.53502 2.35985 8.40498 2.4101 8.28366C2.46036 8.16233 2.53402 8.05209 2.62688 7.95923C2.71974 7.86637 2.82998 7.79272 2.9513 7.74246C3.07263 7.69221 3.20266 7.66634 3.33398 7.66634C3.5992 7.66634 3.85355 7.7717 4.04109 7.95923C4.22863 8.14677 4.33398 8.40112 4.33398 8.66634C4.33398 8.93156 4.22863 9.18591 4.04109 9.37345C3.85355 9.56098 3.5992 9.66634 3.33398 9.66634ZM3.80332 2.39567C3.98013 2.39567 4.1497 2.46591 4.27472 2.59094C4.39975 2.71596 4.46998 2.88553 4.46998 3.06234V4.39567C4.46998 4.57249 4.39975 4.74205 4.27472 4.86708C4.1497 4.9921 3.98013 5.06234 3.80332 5.06234C3.62651 5.06234 3.45694 4.9921 3.33191 4.86708C3.20689 4.74205 3.13665 4.57249 3.13665 4.39567V3.06234C3.13665 2.88553 3.20689 2.71596 3.33191 2.59094C3.45694 2.46591 3.62651 2.39567 3.80332 2.39567Z" fill="white"/>
</svg>
