<svg width="76" height="39" viewBox="0 0 76 39" fill="none" xmlns="http://www.w3.org/2000/svg">
<path d="M12.9023 10.8867V13.6289H3.99609V10.8867H12.9023ZM5.03906 3.9375V21H1.52344V3.9375H5.03906ZM15.4102 3.9375V21H11.9062V3.9375H15.4102ZM25.6172 6.85547L20.9766 21H17.2383L23.5781 3.9375H25.957L25.6172 6.85547ZM29.4727 21L24.8203 6.85547L24.4453 3.9375H26.8477L33.2227 21H29.4727ZM29.2617 14.6484V17.4023H20.25V14.6484H29.2617ZM45.7734 18.2578V21H37.1836V18.2578H45.7734ZM38.3203 3.9375V21H34.8047V3.9375H38.3203ZM54.9609 6.85547L50.3203 21H46.582L52.9219 3.9375H55.3008L54.9609 6.85547ZM58.8164 21L54.1641 6.85547L53.7891 3.9375H56.1914L62.5664 21H58.8164ZM58.6055 14.6484V17.4023H49.5938V14.6484H58.6055ZM75.1172 18.2578V21H66.5273V18.2578H75.1172ZM67.6641 3.9375V21H64.1484V3.9375H67.6641Z" fill="#0A8791"/>
<path d="M35.0039 28.6602V35H33.9141V28.6602H35.0039ZM33.832 26.9785C33.832 26.8027 33.8848 26.6543 33.9902 26.5332C34.0996 26.4121 34.2598 26.3516 34.4707 26.3516C34.6777 26.3516 34.8359 26.4121 34.9453 26.5332C35.0586 26.6543 35.1152 26.8027 35.1152 26.9785C35.1152 27.1465 35.0586 27.291 34.9453 27.4121C34.8359 27.5293 34.6777 27.5879 34.4707 27.5879C34.2598 27.5879 34.0996 27.5293 33.9902 27.4121C33.8848 27.291 33.832 27.1465 33.832 26.9785ZM37.8281 30.0137V35H36.7441V28.6602H37.7695L37.8281 30.0137ZM37.5703 31.5898L37.1191 31.5723C37.123 31.1387 37.1875 30.7383 37.3125 30.3711C37.4375 30 37.6133 29.6777 37.8398 29.4043C38.0664 29.1309 38.3359 28.9199 38.6484 28.7715C38.9648 28.6191 39.3145 28.543 39.6973 28.543C40.0098 28.543 40.291 28.5859 40.541 28.6719C40.791 28.7539 41.0039 28.8867 41.1797 29.0703C41.3594 29.2539 41.4961 29.4922 41.5898 29.7852C41.6836 30.0742 41.7305 30.4277 41.7305 30.8457V35H40.6406V30.834C40.6406 30.502 40.5918 30.2363 40.4941 30.0371C40.3965 29.834 40.2539 29.6875 40.0664 29.5977C39.8789 29.5039 39.6484 29.457 39.375 29.457C39.1055 29.457 38.8594 29.5137 38.6367 29.627C38.418 29.7402 38.2285 29.8965 38.0684 30.0957C37.9121 30.2949 37.7891 30.5234 37.6992 30.7812C37.6133 31.0352 37.5703 31.3047 37.5703 31.5898ZM47.373 33.7695V26H48.4629V35H47.4668L47.373 33.7695ZM43.1074 31.9004V31.7773C43.1074 31.293 43.166 30.8535 43.2832 30.459C43.4043 30.0605 43.5742 29.7188 43.793 29.4336C44.0156 29.1484 44.2793 28.9297 44.584 28.7773C44.8926 28.6211 45.2363 28.543 45.6152 28.543C46.0137 28.543 46.3613 28.6133 46.6582 28.7539C46.959 28.8906 47.2129 29.0918 47.4199 29.3574C47.6309 29.6191 47.7969 29.9355 47.918 30.3066C48.0391 30.6777 48.123 31.0977 48.1699 31.5664V32.1055C48.127 32.5703 48.043 32.9883 47.918 33.3594C47.7969 33.7305 47.6309 34.0469 47.4199 34.3086C47.2129 34.5703 46.959 34.7715 46.6582 34.9121C46.3574 35.0488 46.0059 35.1172 45.6035 35.1172C45.2324 35.1172 44.8926 35.0371 44.584 34.877C44.2793 34.7168 44.0156 34.4922 43.793 34.2031C43.5742 33.9141 43.4043 33.5742 43.2832 33.1836C43.166 32.7891 43.1074 32.3613 43.1074 31.9004ZM44.1973 31.7773V31.9004C44.1973 32.2168 44.2285 32.5137 44.291 32.791C44.3574 33.0684 44.459 33.3125 44.5957 33.5234C44.7324 33.7344 44.9062 33.9004 45.1172 34.0215C45.3281 34.1387 45.5801 34.1973 45.873 34.1973C46.2324 34.1973 46.5273 34.1211 46.7578 33.9688C46.9922 33.8164 47.1797 33.6152 47.3203 33.3652C47.4609 33.1152 47.5703 32.8438 47.6484 32.5508V31.1387C47.6016 30.9238 47.5332 30.7168 47.4434 30.5176C47.3574 30.3145 47.2441 30.1348 47.1035 29.9785C46.9668 29.8184 46.7969 29.6914 46.5938 29.5977C46.3945 29.5039 46.1582 29.457 45.8848 29.457C45.5879 29.457 45.332 29.5195 45.1172 29.6445C44.9062 29.7656 44.7324 29.9336 44.5957 30.1484C44.459 30.3594 44.3574 30.6055 44.291 30.8867C44.2285 31.1641 44.1973 31.4609 44.1973 31.7773ZM54.0293 33.5352V28.6602H55.1191V35H54.082L54.0293 33.5352ZM54.2344 32.1992L54.6855 32.1875C54.6855 32.6094 54.6406 33 54.5508 33.3594C54.4648 33.7148 54.3242 34.0234 54.1289 34.2852C53.9336 34.5469 53.6777 34.752 53.3613 34.9004C53.0449 35.0449 52.6602 35.1172 52.207 35.1172C51.8984 35.1172 51.6152 35.0723 51.3574 34.9824C51.1035 34.8926 50.8848 34.7539 50.7012 34.5664C50.5176 34.3789 50.375 34.1348 50.2734 33.834C50.1758 33.5332 50.127 33.1719 50.127 32.75V28.6602H51.2109V32.7617C51.2109 33.0469 51.2422 33.2832 51.3047 33.4707C51.3711 33.6543 51.459 33.8008 51.5684 33.9102C51.6816 34.0156 51.8066 34.0898 51.9434 34.1328C52.084 34.1758 52.2285 34.1973 52.377 34.1973C52.8379 34.1973 53.2031 34.1094 53.4727 33.9336C53.7422 33.7539 53.9355 33.5137 54.0527 33.2129C54.1738 32.9082 54.2344 32.5703 54.2344 32.1992ZM60.4629 33.3184C60.4629 33.1621 60.4277 33.0176 60.3574 32.8848C60.291 32.748 60.1523 32.625 59.9414 32.5156C59.7344 32.4023 59.4219 32.3047 59.0039 32.2227C58.6523 32.1484 58.334 32.0605 58.0488 31.959C57.7676 31.8574 57.5273 31.7344 57.3281 31.5898C57.1328 31.4453 56.9824 31.2754 56.877 31.0801C56.7715 30.8848 56.7188 30.6562 56.7188 30.3945C56.7188 30.1445 56.7734 29.9082 56.8828 29.6855C56.9961 29.4629 57.1543 29.2656 57.3574 29.0938C57.5645 28.9219 57.8125 28.7871 58.1016 28.6895C58.3906 28.5918 58.7129 28.543 59.0684 28.543C59.5762 28.543 60.0098 28.6328 60.3691 28.8125C60.7285 28.9922 61.0039 29.2324 61.1953 29.5332C61.3867 29.8301 61.4824 30.1602 61.4824 30.5234H60.3984C60.3984 30.3477 60.3457 30.1777 60.2402 30.0137C60.1387 29.8457 59.9883 29.707 59.7891 29.5977C59.5938 29.4883 59.3535 29.4336 59.0684 29.4336C58.7676 29.4336 58.5234 29.4805 58.3359 29.5742C58.1523 29.6641 58.0176 29.7793 57.9316 29.9199C57.8496 30.0605 57.8086 30.209 57.8086 30.3652C57.8086 30.4824 57.8281 30.5879 57.8672 30.6816C57.9102 30.7715 57.9844 30.8555 58.0898 30.9336C58.1953 31.0078 58.3438 31.0781 58.5352 31.1445C58.7266 31.2109 58.9707 31.2773 59.2676 31.3438C59.7871 31.4609 60.2148 31.6016 60.5508 31.7656C60.8867 31.9297 61.1367 32.1309 61.3008 32.3691C61.4648 32.6074 61.5469 32.8965 61.5469 33.2363C61.5469 33.5137 61.4883 33.7676 61.3711 33.998C61.2578 34.2285 61.0918 34.4277 60.873 34.5957C60.6582 34.7598 60.4004 34.8887 60.0996 34.9824C59.8027 35.0723 59.4688 35.1172 59.0977 35.1172C58.5391 35.1172 58.0664 35.0176 57.6797 34.8184C57.293 34.6191 57 34.3613 56.8008 34.0449C56.6016 33.7285 56.502 33.3945 56.502 33.043H57.5918C57.6074 33.3398 57.6934 33.5762 57.8496 33.752C58.0059 33.9238 58.1973 34.0469 58.4238 34.1211C58.6504 34.1914 58.875 34.2266 59.0977 34.2266C59.3945 34.2266 59.6426 34.1875 59.8418 34.1094C60.0449 34.0312 60.1992 33.9238 60.3047 33.7871C60.4102 33.6504 60.4629 33.4941 60.4629 33.3184ZM65.625 28.6602V29.4922H62.1973V28.6602H65.625ZM63.3574 27.1191H64.4414V33.4297C64.4414 33.6445 64.4746 33.8066 64.541 33.916C64.6074 34.0254 64.6934 34.0977 64.7988 34.1328C64.9043 34.168 65.0176 34.1855 65.1387 34.1855C65.2285 34.1855 65.3223 34.1777 65.4199 34.1621C65.5215 34.1426 65.5977 34.127 65.6484 34.1152L65.6543 35C65.5684 35.0273 65.4551 35.0527 65.3145 35.0762C65.1777 35.1035 65.0117 35.1172 64.8164 35.1172C64.5508 35.1172 64.3066 35.0645 64.084 34.959C63.8613 34.8535 63.6836 34.6777 63.5508 34.4316C63.4219 34.1816 63.3574 33.8457 63.3574 33.4238V27.1191ZM67.9805 29.6562V35H66.8965V28.6602H67.9512L67.9805 29.6562ZM69.9609 28.625L69.9551 29.6328C69.8652 29.6133 69.7793 29.6016 69.6973 29.5977C69.6191 29.5898 69.5293 29.5859 69.4277 29.5859C69.1777 29.5859 68.957 29.625 68.7656 29.7031C68.5742 29.7812 68.4121 29.8906 68.2793 30.0312C68.1465 30.1719 68.041 30.3398 67.9629 30.5352C67.8887 30.7266 67.8398 30.9375 67.8164 31.168L67.5117 31.3438C67.5117 30.9609 67.5488 30.6016 67.623 30.2656C67.7012 29.9297 67.8203 29.6328 67.9805 29.375C68.1406 29.1133 68.3438 28.9102 68.5898 28.7656C68.8398 28.6172 69.1367 28.543 69.4805 28.543C69.5586 28.543 69.6484 28.5527 69.75 28.5723C69.8516 28.5879 69.9219 28.6055 69.9609 28.625ZM72.8496 34.3438L74.6133 28.6602H75.7734L73.2305 35.9785C73.1719 36.1348 73.0938 36.3027 72.9961 36.4824C72.9023 36.666 72.7812 36.8398 72.6328 37.0039C72.4844 37.168 72.3047 37.3008 72.0938 37.4023C71.8867 37.5078 71.6387 37.5605 71.3496 37.5605C71.2637 37.5605 71.1543 37.5488 71.0215 37.5254C70.8887 37.502 70.7949 37.4824 70.7402 37.4668L70.7344 36.5879C70.7656 36.5918 70.8145 36.5957 70.8809 36.5996C70.9512 36.6074 71 36.6113 71.0273 36.6113C71.2734 36.6113 71.4824 36.5781 71.6543 36.5117C71.8262 36.4492 71.9707 36.3418 72.0879 36.1895C72.209 36.041 72.3125 35.8359 72.3984 35.5742L72.8496 34.3438ZM71.5547 28.6602L73.2012 33.582L73.4824 34.7246L72.7031 35.123L70.3711 28.6602H71.5547Z" fill="#0A8791"/>
</svg>
