<svg width="226" height="225" viewBox="0 0 226 225" fill="none" xmlns="http://www.w3.org/2000/svg">
<path fill-rule="evenodd" clip-rule="evenodd" d="M104.467 0.198075C77.9166 2.2684 53.4501 13.2372 34.4465 31.5898C14.5645 50.7904 2.58623 75.9041 0.325038 103.129C-0.107821 108.341 -0.10845 116.631 0.32378 121.81C2.5986 149.081 14.6109 174.244 34.4949 193.39C51.1403 209.418 72.552 220.132 94.8933 223.613C98.7309 224.211 99.8215 224.34 103.739 224.656C114.029 225.487 125.697 224.796 135.715 222.764C155.943 218.66 175.118 208.753 190.137 194.646C200.192 185.203 207.795 175.142 213.816 163.313C220.405 150.369 224.237 137.071 225.611 122.384C226.361 114.365 226.007 103.6 224.723 95.3546C221.485 74.5593 212.683 55.4733 198.878 39.3125C197.897 38.1645 195.01 35.1581 192.463 32.6315C186.498 26.7161 181.671 22.7742 175.12 18.469C159.25 8.03854 140.94 1.73657 122.293 0.286364C117.925 -0.0532276 108.303 -0.101025 104.467 0.198075ZM125.544 4.95487C145.294 7.42948 162.636 14.3505 178.184 25.9622C185.924 31.7432 193.497 39.2269 199.402 46.9309C221.053 75.1771 227.353 112.08 216.311 145.97C209.622 166.499 196.817 184.533 179.232 198.193C176.973 199.948 172.513 203.073 171.053 203.924C170.476 204.26 169.391 204.916 168.641 205.382C166.305 206.833 160.494 209.85 157.316 211.261C154.466 212.527 147.839 215.074 146.201 215.533C145.798 215.646 144.331 216.074 142.943 216.483C137.801 217.998 131.822 219.199 125.439 219.997C121.946 220.434 120.704 220.482 112.961 220.483C103.491 220.484 100.873 220.272 93.3523 218.897C73.532 215.271 55.29 206.313 40.2964 192.841C7.19165 163.097 -4.3238 116.76 11.0205 75.0363C15.6039 62.5736 23.2072 50.0501 32.1593 40.219C50.3109 20.2851 74.0724 8.03207 100.483 4.98701C105.743 4.38046 105.302 4.39779 114.01 4.45539C120.677 4.49964 122.561 4.58125 125.544 4.95487ZM114.324 9.63214C114.324 10.2719 113.881 10.3645 112.737 9.96442C111.256 9.44637 109.859 9.46036 108.729 10.0049C107.485 10.6046 106.92 11.4624 106.815 12.9141C106.665 14.9694 107.348 15.7736 110.712 17.5049C113.95 19.1718 114.588 20.3202 113.055 21.7276C112.369 22.3575 111.112 22.5022 109.986 22.0804C109.052 21.7308 107.873 20.4463 107.476 19.3457C107.275 18.7903 107.059 18.3357 106.995 18.3357C106.866 18.3355 106.975 22.7739 107.107 22.9092C107.153 22.9562 107.385 22.8203 107.622 22.6072C108.035 22.235 108.106 22.2338 109.387 22.5736C111.656 23.1753 113.17 22.9562 114.445 21.8418C115.427 20.9839 115.792 20.229 115.792 19.0562C115.792 17.0725 115.013 16.2186 111.769 14.6486C110.695 14.1284 109.556 13.4597 109.238 13.1625C108.471 12.4432 108.455 11.4259 109.201 10.6839C109.683 10.2036 109.867 10.1569 110.963 10.2358C112.527 10.3483 113.549 11.0794 114.232 12.5735L114.719 13.6396L114.731 11.5002C114.739 10.2051 114.661 9.3608 114.534 9.3608C114.419 9.3608 114.324 9.4829 114.324 9.63214ZM119.288 10.2495C119.225 10.5069 119.113 11.328 119.039 12.0742C118.916 13.3065 118.931 13.3831 119.196 12.9091C119.872 11.7018 120.251 11.2673 120.84 11.0247C121.43 10.7812 123.016 10.8454 123.296 11.1243C123.416 11.2437 122.848 15.9406 122.184 20.3123C121.874 22.3511 121.634 22.7017 120.523 22.7426C119.973 22.7627 121.212 22.9768 125.829 23.6598C126.458 23.7529 126.699 23.7249 126.603 23.57C126.526 23.4465 126.287 23.3452 126.071 23.3452C125.855 23.3452 125.524 23.1916 125.336 23.0038C124.943 22.6132 124.993 21.7289 125.653 17.2923C125.867 15.8573 126.106 13.9788 126.185 13.1178C126.264 12.2568 126.36 11.5175 126.398 11.4752C126.437 11.4326 126.915 11.4645 127.462 11.5459C128.613 11.7177 129.841 12.7586 129.846 13.5666C129.848 13.8364 129.93 14.1833 130.029 14.3378C130.241 14.6709 130.37 14.2372 130.581 12.4758L130.721 11.3117L128.552 11.0481C125.105 10.6292 120.342 9.99051 119.852 9.88135C119.516 9.80663 119.373 9.89951 119.288 10.2495ZM100.483 10.3629C99.0256 10.668 98.9614 10.7031 99.6109 10.839C99.9964 10.9197 100.407 11.0809 100.524 11.1971C100.988 11.6586 102.161 17.9679 102.16 19.9902C102.159 21.2586 101.55 22.2185 100.426 22.7266C99.3498 23.2129 98.5661 23.24 97.7495 22.8199C96.8638 22.364 96.6124 21.7262 95.9811 18.3359C94.809 12.0423 94.8042 11.7329 95.8746 11.52C96.2175 11.4518 96.4981 11.3251 96.4981 11.2387C96.4981 11.1523 95.9083 11.2034 95.1873 11.3524C94.4665 11.5015 93.0968 11.7359 92.1437 11.8732C90.4095 12.1232 89.6199 12.4916 90.8185 12.4916C91.6578 12.4916 92.004 13.0481 92.3127 14.8919C93.7346 23.3845 94.1471 24.0893 97.6779 24.0599C99.8049 24.0421 101.463 23.3375 102.284 22.1017C103.077 20.9094 103.099 20.1695 102.453 16.4342C102.127 14.5528 101.857 12.4969 101.853 11.8655C101.846 10.7594 101.873 10.7041 102.58 10.3526L103.314 9.98759L102.685 10.0105C102.339 10.0233 101.348 10.1817 100.483 10.3629ZM133.828 11.8262C133.828 11.9122 134.111 12.089 134.457 12.219C135.199 12.4977 135.262 13.0122 134.775 14.7959C133.198 20.5648 132.346 23.4149 132.113 23.6988C132.001 23.8359 131.562 23.9768 131.138 24.0119C130.477 24.0668 130.665 24.1572 132.465 24.6497C133.618 24.9653 135.01 25.36 135.558 25.5268C136.115 25.6965 136.554 25.7424 136.554 25.6312C136.554 25.5218 136.419 25.4325 136.255 25.4325C135.809 25.4325 135.296 24.8391 135.296 24.3241C135.296 24.0751 135.552 22.9549 135.865 21.8343C136.36 20.0643 136.494 19.7969 136.885 19.7969C137.225 19.7969 137.415 20.0148 137.658 20.684C137.836 21.172 138.395 22.7372 138.902 24.1626L139.824 26.7541L141.597 27.2314C143.741 27.8088 143.922 27.8221 143.326 27.3585C143.027 27.1262 142.485 25.9603 141.805 24.0843C141.224 22.4819 140.749 21.0616 140.749 20.928C140.749 20.7944 141.103 20.6274 141.535 20.5567C143.261 20.2749 144.314 19.0414 144.314 17.3025C144.314 15.041 143.282 14.3614 137.288 12.6743C135.674 12.2199 134.234 11.8079 134.09 11.7588C133.946 11.71 133.828 11.7402 133.828 11.8262ZM139.828 14.0591C140.929 14.5069 141.378 15.1543 141.378 16.2948C141.378 18.0812 140.352 19.5882 139.136 19.5882C138.214 19.5882 136.764 19.1292 136.764 18.8372C136.764 18.6033 137.811 14.7498 138.137 13.7818C138.234 13.495 138.581 13.552 139.828 14.0591ZM81.3295 14.8087C80.3464 15.0387 74.8329 16.8713 74.6873 17.0163C74.6296 17.0737 74.9157 17.0589 75.323 16.9831C75.894 16.8769 76.1428 16.9324 76.4093 17.2257C76.5995 17.4346 77.5108 19.86 78.4346 22.6149C80.2379 27.9933 80.2558 28.15 79.1245 28.6649C78.8756 28.7783 78.672 28.9396 78.672 29.0235C78.672 29.2581 85.3706 26.9158 86.3806 26.3281C88.1662 25.2891 89.3718 23.2467 89.3651 21.2722C89.3615 20.1929 88.8568 18.469 88.2352 17.4135C86.9007 15.1472 84.2138 14.1337 81.3295 14.8087ZM82.8557 15.9301C84.9499 17.0078 86.8464 21.726 86.2491 24.3719C86.1375 24.8658 85.7993 25.5264 85.4971 25.8403C84.8559 26.5063 83.7012 26.9204 83.225 26.6549C83.0337 26.5485 82.194 24.3473 81.2043 21.3588C80.273 18.5463 79.5108 16.1958 79.5108 16.1357C79.5108 15.6312 81.9803 15.4795 82.8557 15.9301ZM148.87 16.4843C149.293 16.9468 149.37 17.4041 149.678 21.2812L150.019 25.5667L149.152 27.283C148.675 28.2268 148.132 29.0573 147.946 29.1285C147.76 29.1995 147.321 29.15 146.971 29.0185C145.786 28.5735 146.141 28.958 147.487 29.5773C148.222 29.9156 149.662 30.5791 150.689 31.0521C152.618 31.9411 153.278 32.073 151.978 31.3097C151.522 31.0423 151.235 30.7123 151.235 30.4577C151.235 30.2291 151.627 29.1893 152.107 28.1467L152.98 26.2511L155.922 24.2492C159.049 22.1217 160.03 21.6036 160.555 21.8042C160.735 21.8727 160.882 21.8483 160.882 21.75C160.881 21.5713 158.017 20.2119 157.644 20.2135C157.536 20.214 157.654 20.406 157.906 20.64C158.772 21.4429 158.575 21.6865 155.219 23.9591L153.017 25.4504L152.871 24.3456C152.791 23.738 152.697 22.2077 152.662 20.9449L152.598 18.649L153.279 18.651C153.654 18.6521 153.961 18.6037 153.961 18.5436C153.961 18.4404 149.731 16.4476 148.823 16.123C148.429 15.9823 148.432 16.0049 148.87 16.4843ZM70.0211 18.975C69.1273 19.4298 68.3958 19.8418 68.3958 19.8907C68.3958 19.9395 68.7227 19.9266 69.1222 19.8621C69.7111 19.7671 69.9326 19.8387 70.2904 20.2405C70.8486 20.8671 73.4821 25.8666 73.3323 26.0156C73.2711 26.0766 71.1831 25.2033 68.6925 24.0749L64.1643 22.0234L62.5576 22.8197C61.6739 23.2576 60.762 23.7529 60.5313 23.9205C60.1282 24.2133 60.1326 24.2204 60.6475 24.1046C60.9642 24.0332 61.4696 24.1306 61.8842 24.3429C62.4853 24.6508 62.895 25.3058 64.7565 28.9359C67.1389 33.5816 67.3442 34.3349 66.3969 34.9527C66.105 35.1433 65.9064 35.3391 65.9557 35.3881C66.0505 35.4825 69.8638 33.6267 69.8638 33.486C69.8638 33.4407 69.4899 33.4537 69.0327 33.5146C68.3404 33.6071 68.1273 33.5424 67.7563 33.1279C67.3472 32.671 63.58 25.5141 63.5745 25.1837C63.5733 25.1043 64.3981 25.4076 65.4073 25.8578C71.5862 28.6142 76.2684 30.5821 76.3212 30.4445C76.355 30.3573 75.9913 29.5466 75.5134 28.6432C73.1048 24.0918 71.1221 19.995 71.1221 19.5696C71.1221 19.3077 71.3272 18.8758 71.578 18.6101C72.2061 17.9447 71.909 18.0144 70.0211 18.975ZM55.6593 27.0684C54.1332 28.048 52.9124 28.8774 52.9468 28.9114C52.981 28.9457 53.3119 28.8597 53.6821 28.7207C54.1649 28.5393 54.4574 28.5305 54.7169 28.6896C54.9159 28.8117 55.9085 30.2185 56.9225 31.816C57.9367 33.4136 59.1872 35.3768 59.7012 36.1792C60.7821 37.8652 60.8853 38.6185 60.1054 39.1272C59.8134 39.3177 59.6201 39.5187 59.6757 39.574C59.7312 39.6294 61.0107 38.899 62.5188 37.951C64.0269 37.003 65.2286 36.195 65.1892 36.1558C65.1497 36.1168 64.8245 36.1946 64.4665 36.329C63.9518 36.5225 63.7461 36.5163 63.4835 36.2994C62.82 35.7513 57.6477 27.2799 57.6477 26.7409C57.6477 26.421 57.8475 26.054 58.1426 25.8326C58.4148 25.6282 58.5918 25.422 58.5358 25.3742C58.4798 25.3264 57.1855 26.0889 55.6593 27.0684ZM108.137 25.9724C107.676 26.0181 106.072 26.154 104.572 26.2744C89.5792 27.4781 73.8327 33.4917 61.1605 42.8537C41.194 57.6044 28.4682 80.0629 26.2081 104.538C25.8734 108.162 25.8734 116.777 26.2081 120.401C27.379 133.08 31.5949 145.968 38.0717 156.666C42.0645 163.262 45.8413 168.084 51.2963 173.55C65.6312 187.917 84.0445 196.629 104.467 198.708C107.836 199.051 117.623 199.05 121.117 198.706C148.652 195.993 172.926 180.743 187.327 157.108C193.15 147.552 197.213 136.358 198.833 125.411C199.55 120.563 199.712 118.173 199.712 112.47C199.712 103.989 198.999 98.3297 196.925 90.3452C190.855 66.9823 174.113 46.3304 152.324 35.3263C142.534 30.3823 132.073 27.3126 121.455 26.268C119.149 26.0411 109.584 25.8288 108.137 25.9724ZM166.829 28.5685C165.354 29.1494 164.03 30.3675 163.287 31.8286C162.748 32.888 162.666 33.2731 162.674 34.7206C162.685 36.6444 163.08 37.6033 164.488 39.1243C165.844 40.5884 167.366 41.3436 169.195 41.4605C170.25 41.5279 170.834 41.4763 171.051 41.2971C171.604 40.84 171.402 40.7517 170.004 40.8402C168.842 40.9138 168.47 40.8435 167.486 40.3643C166.848 40.0537 166.074 39.4659 165.756 39.0516C165.254 38.3971 165.181 38.113 165.181 36.8241C165.181 35.0201 165.877 33.4821 167.487 31.7261C169.705 29.3078 172.189 28.9703 174.143 30.8217C175.149 31.7749 175.43 32.6509 175.302 34.437C175.245 35.2245 175.222 35.8686 175.25 35.8686C175.337 35.8686 177.479 32.9043 177.578 32.6463C177.642 32.4816 177.447 32.4288 176.978 32.4833C176.343 32.557 176.227 32.4752 175.606 31.5226C174.81 30.2984 173.797 29.3698 172.568 28.7347C171.274 28.0665 168.32 27.981 166.829 28.5685ZM114.096 34.103C116.693 34.7123 116.995 34.9636 126.81 44.6779L136.045 53.8188H150.014C163.477 53.8188 164.033 53.8342 165.367 54.2441C168.028 55.0619 170.459 57.4685 171.475 60.2892C171.864 61.3716 171.894 62.18 171.995 74.437L172.102 87.4367L181.224 96.6439C186.242 101.708 190.606 106.237 190.923 106.708C191.24 107.179 191.707 108.175 191.962 108.922C192.842 111.502 192.424 114.745 190.923 116.98C190.606 117.452 186.218 122.001 181.172 127.089L171.997 136.339V149.423C171.997 157.306 171.913 162.953 171.786 163.631C171.255 166.462 169.133 169.194 166.444 170.509L164.981 171.225L150.82 171.284L136.659 171.343L127.432 180.479C117.263 190.548 117.308 190.512 114.242 190.986C113.013 191.176 112.346 191.172 111.181 190.965C108.36 190.463 108.123 190.27 98.2274 180.443L89.1564 171.434L74.9375 171.33L60.7186 171.225L59.1413 170.449C57.1148 169.452 55.6451 167.932 54.5979 165.75L53.8203 164.129L53.7607 150.144L53.7012 136.16L44.2039 126.663C35.4584 117.918 34.6604 117.061 34.1214 115.836C32.9038 113.07 32.9038 110.617 34.1214 107.851C34.6604 106.627 35.459 105.769 44.2028 97.0244L53.6989 87.5275L53.7595 74.2575L53.8203 60.9875L54.7112 59.1986C55.7722 57.0681 57.2071 55.6434 59.3363 54.6069L60.741 53.9231L74.2679 53.8636L87.7947 53.8039L97.0224 44.6514C106.815 34.9385 107.061 34.7338 109.663 34.1059C111.255 33.7217 112.467 33.7208 114.096 34.103ZM180.459 35.261C180.649 35.5315 180.805 35.9431 180.805 36.176C180.805 36.6185 173.757 44.2699 173.128 44.5101C172.941 44.5815 172.445 44.4431 172.026 44.2025C171.293 43.7823 176.005 48.489 178.438 50.6082L179.531 51.5604L181.003 50.355C181.813 49.6921 182.434 49.1083 182.383 49.0578C182.332 49.0073 181.907 49.1185 181.439 49.3051C179.762 49.9728 178.302 49.6163 176.701 48.148C175.378 46.9342 175.443 46.6274 177.451 44.5761L179.129 42.8608L179.653 43.4465C180.309 44.1814 180.312 44.9113 179.661 46.0438C179.381 46.5318 179.232 46.9309 179.33 46.9309C179.521 46.9309 183.958 42.2768 183.86 42.1791C183.828 42.147 183.387 42.3563 182.88 42.6448C182.373 42.933 181.662 43.1699 181.3 43.1714C180.447 43.1747 179.623 42.5387 179.883 42.0785C180.133 41.6358 183.116 38.582 183.298 38.582C183.521 38.582 185.553 40.7204 185.814 41.2294C186.134 41.8523 186.096 42.9608 185.733 43.5913C185.265 44.4076 185.331 44.7781 185.862 44.302C186.823 43.4385 187.998 41.8802 187.789 41.7466C187.669 41.6707 185.994 40.1057 184.065 38.2689C180.627 34.9949 179.767 34.2775 180.459 35.261ZM109.919 36.6799C108.491 37.1391 107.256 38.2491 98.4904 46.947L89.0531 56.3117L75.3165 56.3698C61.6288 56.4276 61.5763 56.4295 60.5818 56.8907C59.0964 57.5799 57.6416 59.0433 56.9409 60.5534L56.3369 61.8546L56.2753 75.3172L56.2134 88.7798L46.6282 98.3255C35.7295 109.179 35.9942 108.842 35.9942 111.844C35.9942 114.848 35.7272 114.509 46.6389 125.368L56.2352 134.919L56.286 149.106L56.3369 163.294L56.9409 164.595C57.6418 166.106 59.1153 167.587 60.5907 168.266C61.5721 168.717 61.6921 168.721 75.8867 168.78L90.1935 168.839L99.4801 178.071C106.511 185.061 109.021 187.429 109.815 187.822C110.711 188.265 111.154 188.341 112.856 188.34C114.535 188.34 114.997 188.263 115.792 187.851C116.421 187.526 119.834 184.286 126.017 178.146L135.298 168.929L149.715 168.825L164.132 168.721L165.347 168.108C166.767 167.392 168.073 166.064 168.712 164.687C169.159 163.725 169.167 163.514 169.27 149.467L169.375 135.224L174.221 130.369C190.358 114.205 189.717 114.972 189.718 111.845C189.718 108.722 190.29 109.405 174.119 93.2137L169.375 88.4636L169.27 74.9505C169.168 61.6999 169.157 61.4183 168.717 60.4724C168.072 59.0829 166.863 57.8486 165.403 57.089L164.132 56.4278L149.452 56.37L134.772 56.3124L125.334 46.9545C114.748 36.4578 114.975 36.6359 112.122 36.557C111.199 36.5315 110.208 36.5868 109.919 36.6799ZM40.7202 39.2221C39.3977 40.4661 38.3697 41.5377 38.4358 41.6035C38.5018 41.6692 38.6753 41.5797 38.8212 41.4048C39.4061 40.7034 40.1575 41.0188 41.6736 42.6018C46.3757 47.5114 47.227 48.426 47.5495 48.9159C47.8911 49.4349 47.8865 49.4838 47.4367 50.0891C47.1787 50.4364 46.9994 50.7524 47.0384 50.791C47.0774 50.8296 48.9706 49.1227 51.2456 46.9979L55.3819 43.1344L54.094 41.4323C53.3856 40.496 52.7746 39.6909 52.7365 39.6429C52.6981 39.5951 52.618 39.6047 52.5582 39.664C52.4984 39.7235 52.6381 40.1854 52.8682 40.6903C53.1303 41.2653 53.2885 42.0639 53.2914 42.8268C53.296 44.0372 53.2878 44.0534 52.0043 45.3836C51.1596 46.2592 50.5481 46.7222 50.2364 46.7222C49.8908 46.7222 48.7998 45.7095 46.2652 43.0359C44.3429 41.0084 42.6687 39.1278 42.5446 38.8567C42.3588 38.4509 42.4028 38.2507 42.7927 37.7258C43.0533 37.3752 43.2345 37.0594 43.1955 37.0241C43.1565 36.989 42.0427 37.9782 40.7202 39.2221ZM190.822 46.2776L190.92 47.2941L188.956 48.8691C184.515 52.4301 183.451 53.2375 182.773 53.5591C182.092 53.8826 182.036 53.877 181.417 53.4218C181.062 53.1606 180.743 52.9789 180.707 53.0177C180.59 53.1442 183.369 56.5543 183.49 56.4336C183.555 56.3691 183.497 56.2053 183.36 56.0694C183.224 55.9337 183.112 55.4714 183.112 55.0425C183.112 54.2821 183.202 54.1913 186.71 51.4291C188.688 49.8708 190.339 48.627 190.377 48.6652C190.443 48.7305 190.057 50.4948 188.555 57.0018C187.609 61.1007 187.444 61.9566 187.573 62.085C187.637 62.1491 189.725 60.6041 192.212 58.6517C194.699 56.6995 196.935 55.0387 197.182 54.9607C197.486 54.8647 197.836 54.9703 198.27 55.29C199.165 55.9486 198.924 55.4197 197.552 53.7154C196.483 52.3875 195.767 51.8453 196.447 52.878C196.981 53.6887 196.671 54.323 195.115 55.6035C192.676 57.6106 191.494 58.4739 191.364 58.3445C191.248 58.2284 191.567 56.762 192.876 51.4115C193.158 50.2596 193.388 49.1212 193.388 48.8816C193.388 48.5429 191.023 45.2611 190.779 45.2611C190.748 45.2611 190.767 45.7184 190.822 46.2776ZM33.3251 51.1367C38.1361 60.2985 38.0398 60.0913 37.9305 61.0562C37.8743 61.5528 37.8876 61.9558 37.9599 61.9521C38.1004 61.9445 40.3421 59.0967 40.4813 58.7488C40.5269 58.6346 40.3018 58.7467 39.9812 58.9978C39.1794 59.6254 38.7245 59.5709 38.1283 58.7759C36.9897 57.2575 36.9818 57.3253 38.528 55.3545L39.9315 53.5658L40.7622 53.6981C41.2189 53.7707 41.9248 53.9684 42.3309 54.1371C43.0949 54.4549 43.1425 54.6691 42.7014 55.8016C42.6119 56.0312 43.4019 55.1416 44.457 53.825C45.5121 52.5082 46.3753 51.3554 46.3753 51.2634C46.3753 51.1711 46.1431 51.2471 45.8596 51.432C45.5026 51.6647 45.1312 51.7253 44.6537 51.6282C44.0212 51.4998 33.1466 48.7253 32.2503 48.4638C31.9544 48.3773 32.2098 49.0129 33.3251 51.1367ZM37.0766 52.6929C38.2114 52.9922 39.1756 53.2704 39.2193 53.3111C39.3308 53.4153 37.0818 56.3234 36.8895 56.3234C36.8029 56.3234 36.2585 55.3842 35.6796 54.2362C35.1008 53.0882 34.7141 52.149 34.8202 52.149C34.9263 52.149 35.9416 52.3938 37.0766 52.6929ZM199.496 59.5545C198.761 59.9489 198.121 60.3094 198.075 60.3557C198.028 60.4021 198.552 60.4296 199.24 60.4167C200.346 60.3962 200.561 60.4624 201.118 60.9919C201.843 61.6826 202.347 62.7371 202.069 62.984C201.455 63.53 192.652 67.8032 192.141 67.8032C191.729 67.8032 191.391 67.6193 191.086 67.2292C190.838 66.9136 190.665 66.7508 190.701 66.8675C190.874 67.4287 193.643 72.628 193.725 72.5464C193.777 72.4951 193.722 72.1991 193.604 71.8885C193.471 71.5402 193.461 71.1895 193.579 70.9726C193.768 70.6253 203.167 65.716 203.643 65.716C203.778 65.716 204.078 66.1553 204.309 66.6921C204.823 67.884 204.703 68.6061 203.826 69.5999C203.476 69.9969 203.232 70.3648 203.285 70.4174C203.358 70.4896 205.557 69.4872 206.169 69.1033C206.281 69.0326 201.086 58.8356 200.938 58.8369C200.88 58.8373 200.232 59.1602 199.496 59.5545ZM33.5824 60.893C33.5824 60.9884 33.8601 61.4144 34.1994 61.8393C35.1551 63.0364 35.5641 64.2791 35.2805 65.1248C34.9225 66.1931 33.8375 67.9731 33.4038 68.2041C33.0015 68.4183 31.7757 67.7984 25.9277 64.4231C23.6802 63.1259 23.6212 63.0731 23.6361 62.3687C23.6445 61.9713 23.729 61.458 23.8242 61.2284C23.9459 60.9349 23.9303 60.873 23.7722 61.0197C23.5147 61.2587 20.3702 66.6734 20.3702 66.8779C20.3702 66.9518 20.6441 66.7207 20.9786 66.3642C21.3133 66.0077 21.7065 65.716 21.8527 65.716C22.1704 65.716 30.029 70.14 31.0371 70.8864C31.6786 71.3615 31.7325 71.4834 31.6314 72.2323C31.5704 72.6852 31.5507 73.0246 31.5876 72.9864C31.7195 72.8497 37.1477 63.4369 37.1477 63.3447C37.1477 63.2555 35.7644 62.2211 34.264 61.1883C33.8893 60.9304 33.5824 60.7974 33.5824 60.893ZM97.1507 63.5129C97.6828 64.2979 98.3298 65.0992 98.5885 65.2935L99.0587 65.6464L98.271 67.2323L97.4831 68.818L97.9837 72.4329C98.7018 77.6202 98.7028 84.1236 97.9858 87.0057C96.7879 91.8215 94.3151 94.5706 90.4661 95.3659C88.6275 95.7457 85.0988 95.533 83.8178 94.9653C82.4475 94.3577 82.0654 93.9958 81.4755 92.7456C80.5571 90.7996 80.7845 88.7855 82.6185 82.6225L83.0222 81.2658L83.1113 84.6054C83.1895 87.5396 83.26 88.0791 83.6922 89.0499C84.2591 90.3231 85.4383 91.4229 86.6115 91.7727C87.0584 91.9061 88.2339 92.015 89.2238 92.015C91.3289 92.015 94.0408 91.2755 94.7706 90.5024C95.9633 89.2388 96.4029 86.3968 96.2156 81.1614C95.9453 73.6073 95.1982 68.6784 93.8376 65.4701L93.5119 64.7024L94.6381 63.3336C95.2574 62.5809 95.8584 61.9921 95.9738 62.0251C96.0891 62.0583 96.6189 62.7279 97.1507 63.5129ZM117.257 65.927C117.755 66.8113 117.779 66.9983 117.691 69.2642C117.48 74.6576 117.596 78.2642 118.063 80.8767C118.525 83.4543 119.351 85.8356 120.232 87.1242C121.784 89.396 125.55 90.4726 128.908 89.6049C131.285 88.9908 133.7 87.6707 133.483 87.105C133.418 86.9385 132.74 86.4958 131.975 86.1211C130.613 85.454 130.528 85.4403 127.742 85.4403C124.988 85.4403 124.858 85.4605 123.596 86.0831C122.88 86.4365 122.293 86.6803 122.293 86.625C122.293 86.2975 123.861 83.8208 124.591 82.9961C125.87 81.5499 127.357 80.8978 129.378 80.8968C131.428 80.8955 132.714 81.3351 136.888 83.4643C140.188 85.1472 142.096 85.7533 144.093 85.7533C145.346 85.7533 145.39 85.8913 144.6 87.3446C143.695 89.009 143.069 89.8549 142.576 90.076C142.296 90.2018 141.579 90.2213 140.77 90.1252C138.163 89.8159 133.342 90.7988 129.424 92.4387C124.101 94.6666 122.283 94.6378 120.208 92.2918C118.616 90.4916 117.337 87.0286 116.945 83.4574C116.723 81.4315 116.152 78.2393 116.012 78.2393C115.937 78.2393 115.756 78.8265 115.609 79.5438C115.056 82.2395 113.597 85.9631 112.306 87.9706C109.233 92.7516 104.773 95.2114 98.6477 95.5022C96.786 95.5904 96.0786 95.5583 96.0786 95.3848C96.0786 95.2533 96.2498 95.1459 96.4586 95.1459C97.1121 95.1459 100.358 93.9739 102.242 93.058C107.369 90.5652 111.103 86.3449 112.977 80.9247C113.561 79.2333 114.347 75.1285 114.829 71.2471C115 69.8695 115.347 67.8693 115.601 66.8021C116.133 64.56 116.407 64.4152 117.257 65.927ZM102.475 70.2765C104.476 71.3068 107.059 73.8697 108.08 75.839C109.1 77.8075 109.744 80.3865 109.85 82.9356C109.936 84.9946 109.933 85.0143 109.577 84.3966C109.378 84.0522 108.967 83.113 108.663 82.3094C107.401 78.9759 106.83 78.4887 102.31 76.8851C100.12 76.1085 99.284 74.6914 99.5017 72.1283C99.5721 71.2982 99.7376 70.311 99.8695 69.9349C100.153 69.1263 100.271 69.1417 102.475 70.2765ZM207.782 72.6063C207.869 73.1569 207.801 73.4232 207.511 73.6773C207.078 74.0563 197.679 77.1957 196.977 77.1957C196.695 77.1957 196.373 76.9431 196.112 76.5174C195.884 76.1442 195.696 75.9329 195.696 76.0477C195.695 76.1623 196.46 78.5395 197.394 81.3299C199.09 86.3941 199.094 86.4031 199.649 86.2923C199.954 86.2311 200.841 86.0752 201.619 85.946C203.081 85.7028 203.354 85.3359 202.072 85.3359C200.432 85.3359 199.15 84.2737 198.391 82.2846C197.905 81.0101 197.898 80.3958 198.369 80.1479C199.257 79.6799 202.657 78.628 202.937 78.7346C203.13 78.8085 203.245 79.1366 203.245 79.614C203.245 80.2168 203.081 80.5382 202.458 81.1537C202.026 81.5818 201.53 81.9805 201.357 82.04C201.184 82.0992 201.09 82.1957 201.148 82.2539C201.266 82.3733 207.125 80.5121 207.346 80.2852C207.424 80.2049 206.889 80.1422 206.156 80.1458C204.929 80.1516 204.78 80.1015 204.245 79.5054C203.926 79.1498 203.664 78.7271 203.664 78.5662C203.664 78.3771 204.499 78.0074 206.024 77.5211C207.321 77.1072 208.477 76.7584 208.593 76.7459C208.917 76.7106 209.509 78.8404 209.524 80.0932C209.536 81.1529 209.483 81.2693 208.593 82.1556C208.074 82.6722 207.649 83.123 207.649 83.1574C207.649 83.1919 208.427 82.9556 209.379 82.6327C210.331 82.3098 211.097 81.9642 211.083 81.8644C211.026 81.4777 208.02 72.4819 207.848 72.1864C207.734 71.9885 207.71 72.1429 207.782 72.6063ZM30.6283 73.9822C30.4746 74.1663 30.137 74.3974 29.8776 74.4955C29.6183 74.5936 26.689 74.7762 23.3677 74.9012C20.0466 75.0262 17.1 75.1769 16.82 75.2362C16.3612 75.3331 16.7567 75.7904 20.8286 79.8703C23.3134 82.3597 25.5007 84.6289 25.6895 84.9128C25.8782 85.1965 26.0363 85.6661 26.041 85.9564L26.0493 86.4839L26.3757 85.8844C26.555 85.5548 26.8719 84.8034 27.0797 84.2146C27.2875 83.626 27.5245 82.9565 27.6063 82.7269C27.7 82.4637 27.5474 82.5603 27.1932 82.9878C26.456 83.8778 25.8776 83.8521 24.7776 82.8807L23.8882 82.0951L24.402 80.8456C24.6845 80.1583 25.0804 79.15 25.2818 78.6046L25.6477 77.6132H27.0728C28.7436 77.6132 29.0838 77.8601 28.8579 78.9091C28.7765 79.2869 28.7673 79.542 28.8376 79.476C28.9571 79.3635 30.7634 74.8094 31.0044 74.0127C31.1422 73.557 30.9928 73.5449 30.6283 73.9822ZM24.7743 78.0058C24.7743 78.3272 23.7036 81.0485 23.4925 81.2635C23.3603 81.3981 22.7456 80.8903 21.7252 79.8031C20.8645 78.8861 20.1604 78.0652 20.1604 77.9788C20.1604 77.8926 21.1986 77.8219 22.4674 77.8219C23.7361 77.8219 24.7743 77.9045 24.7743 78.0058ZM13.5623 84.6575C13.3926 85.095 12.1909 90.3523 12.1916 90.6552C12.1916 90.7717 12.3568 90.5383 12.5586 90.1365C12.7662 89.7228 13.1072 89.3818 13.3446 89.35C13.5753 89.3194 14.7549 89.5177 15.9661 89.7905L18.1681 90.2868L18.1004 90.89C18.0079 91.7136 17.2881 94.5257 17.1296 94.6835C16.9341 94.8781 13.0369 93.9461 12.4529 93.5652C12.0376 93.2945 11.9558 93.0947 12.0234 92.5185C12.0693 92.1267 12.0548 91.8063 11.9909 91.8063C11.8019 91.8063 10.4261 98.0507 10.5811 98.2049C10.6591 98.2828 10.7231 98.1573 10.7231 97.9265C10.7231 97.6954 10.9144 97.3343 11.148 97.1239C11.5397 96.771 11.6828 96.7628 12.983 97.0175C16.7664 97.7589 22.1614 99.1492 22.5248 99.4764C22.8287 99.7501 22.8977 100.014 22.8105 100.57C22.7385 101.028 22.7626 101.186 22.8748 100.99C23.0307 100.718 24.3561 95.1381 24.354 94.7629C24.3536 94.6865 24.1644 94.9325 23.9335 95.3095C23.7024 95.6865 23.3945 96.0402 23.249 96.0958C23.1032 96.1515 21.9099 95.9605 20.5969 95.6714C19.2838 95.3823 18.1662 95.1459 18.1134 95.1459C17.9337 95.1459 18.778 90.8167 19.0009 90.5949C19.0489 90.5469 20.1686 90.7577 21.489 91.0632C24.187 91.6877 24.6985 92.0265 24.4922 93.053C24.4205 93.4108 24.454 93.6848 24.5698 93.6848C24.6822 93.6848 24.7753 93.5203 24.7768 93.3195C24.7782 93.1187 25.0601 91.7802 25.4034 90.3452C26.0806 87.5141 26.1785 86.7387 25.7283 87.7686C25.2491 88.8648 25.1406 88.8608 19.4264 87.5365C13.7728 86.2261 13.544 86.1232 13.7315 84.9731C13.8536 84.2244 13.7821 84.0911 13.5623 84.6575ZM212.473 86.6671C212.473 87.0547 212.326 87.4926 212.148 87.6402C211.842 87.893 207.959 88.6823 203.412 89.4162C201.213 89.7713 200.519 89.645 200.519 88.8892C200.519 88.6704 200.424 88.4333 200.309 88.3624C200.036 88.1944 200.017 88.0219 200.645 91.4425C201.209 94.5105 201.355 95.0275 201.361 93.9806C201.366 92.8603 201.743 92.6372 204.293 92.2409C205.159 92.1062 206.079 91.9518 206.338 91.8973C206.718 91.8176 206.81 91.8904 206.809 92.272C206.808 92.5903 205.996 93.5942 204.333 95.3335L201.859 97.9215L202.163 99.7689C202.331 100.785 202.548 101.616 202.647 101.616C202.745 101.616 202.825 101.442 202.825 101.228C202.825 100.702 207.644 95.7848 207.794 96.1575C208.073 96.8488 209.226 97.8751 209.975 98.0985C211.648 98.5971 213.467 97.5238 213.945 95.7555C214.238 94.6727 214.123 93.3705 213.407 89.6654C213.123 88.201 212.892 86.7688 212.892 86.4824C212.892 86.1963 212.798 85.9621 212.682 85.9621C212.567 85.9621 212.473 86.2793 212.473 86.6671ZM213.18 91.4149C213.525 93.1317 213.176 94.158 212.054 94.7278C210.835 95.3469 209.89 95.4423 209.025 95.0338C208.168 94.6289 207.916 94.2509 207.529 92.7948C207.214 91.604 207.004 91.7418 209.956 91.2035C213.032 90.6427 213.025 90.6423 213.18 91.4149ZM71.1519 101.65C73.9233 102.476 75.3538 106.131 75.0409 111.588L74.93 113.524L78.2894 113.466L81.6489 113.409L81.6192 108.052L81.5894 102.695L82.9096 102.561C83.6356 102.487 85.5508 102.455 87.1656 102.491L90.1016 102.556L90.1555 116.592L90.2094 130.629H85.8997H81.59L81.6185 124.941L81.647 119.253L78.272 119.196L74.897 119.139V124.884V130.629H70.5884H66.2797L66.3416 119.201C66.4106 106.458 66.4756 107.098 64.939 105.405C64.0015 104.372 64.0609 104.046 65.3999 102.873C66.8998 101.559 69.2038 101.069 71.1519 101.65ZM123.713 102.375L124.188 102.502L124.178 113.173C124.171 119.521 124.253 124.289 124.378 124.941C124.639 126.295 125.003 127.006 125.84 127.798C126.66 128.574 126.654 128.926 125.806 129.742C123.477 131.985 119.17 131.871 117.142 129.512C115.744 127.887 115.746 127.921 115.784 114.57C115.802 107.975 115.864 102.504 115.922 102.411C116.043 102.217 122.998 102.184 123.713 102.375ZM159.175 102.38L159.671 102.512L159.595 113.7C159.51 126.202 159.462 125.729 160.983 127.587C161.754 128.529 161.845 128.74 161.642 129.115C161.209 129.913 159.851 130.786 158.458 131.162C157.288 131.477 156.888 131.497 155.795 131.295C154.271 131.013 152.791 130.159 152.128 129.18C151.049 127.587 151.025 127.265 151.025 114.641C151.025 108.185 151.082 102.754 151.152 102.573C151.262 102.289 151.797 102.243 154.98 102.245C157.015 102.247 158.903 102.308 159.175 102.38ZM101.434 110.5C102.148 110.836 102.96 111.47 103.623 112.211L104.677 113.388V112.094V110.8H108.904H113.13L112.993 113.774C112.918 115.41 112.795 118.034 112.721 119.606C112.582 122.528 112.825 125.041 113.376 126.365C113.522 126.718 113.937 127.341 114.298 127.749C114.658 128.158 114.953 128.625 114.953 128.788C114.953 129.284 113.435 130.592 112.463 130.933C111.958 131.11 110.955 131.255 110.235 131.255C107.815 131.255 105.999 130.256 105.218 128.493L104.76 127.461L104.161 128.32C102.923 130.099 100.472 131.361 98.2807 131.349C95.7657 131.335 93.7203 129.843 92.34 127.017C91.2025 124.688 90.9592 123.49 90.9743 120.297C90.9856 117.892 91.0531 117.394 91.5682 115.914C92.9643 111.901 95.2725 109.997 98.7655 109.975C99.9891 109.967 100.528 110.073 101.434 110.5ZM136.659 110.477C137.768 111.013 138.393 111.52 139.333 112.646L139.91 113.337V112.068V110.8H144.104H148.299L148.298 112.835C148.298 113.954 148.2 116.373 148.082 118.21C147.74 123.51 148.198 126.209 149.734 127.951L150.391 128.696L149.913 129.401C149.208 130.444 147.885 131.086 146.199 131.207C144.291 131.343 142.874 130.976 141.813 130.072C140.871 129.27 140.531 128.753 140.341 127.832L140.216 127.228L139.644 128.088C138.295 130.116 135.166 131.679 133.078 131.368C130.09 130.922 128.082 128.905 126.857 125.118C126.271 123.305 126.247 123.081 126.324 120.193C126.391 117.694 126.49 116.929 126.892 115.809C127.837 113.174 129.189 111.532 131.207 110.567C132.907 109.754 135.091 109.718 136.659 110.477ZM13.1391 111.069C10.7741 112.402 10.752 115.996 13.1005 117.366C14.6851 118.29 16.4381 118.04 17.6707 116.715C18.4791 115.846 18.6924 115.326 18.6924 114.224C18.6924 111.414 15.6217 109.669 13.1391 111.069ZM209.397 111.116C207.103 112.485 207.092 116.021 209.378 117.355C212.727 119.308 216.415 115.659 214.456 112.331C213.445 110.615 211.158 110.066 209.397 111.116ZM100.624 116.015C98.5852 117.796 98.5091 123.621 100.502 125.291C101.49 126.118 102.643 126.041 103.546 125.089C104.464 124.12 104.764 123.026 104.774 120.61C104.787 117.38 103.955 115.685 102.246 115.459C101.497 115.36 101.292 115.43 100.624 116.015ZM136.554 115.539C135.486 115.928 134.596 117.693 134.342 119.926C134.091 122.137 134.99 124.926 136.146 125.521C138.364 126.662 140.179 124.406 140.181 120.506C140.183 117.075 138.535 114.819 136.554 115.539ZM87.1794 140.331C88.2245 140.941 88.9505 142.236 88.9436 143.479C88.9325 145.48 87.3994 147.166 84.3763 148.502C84.3417 148.518 85.3092 150.101 86.5259 152.021C87.7429 153.941 88.7385 155.549 88.7385 155.594C88.7385 155.639 87.425 155.675 85.8196 155.675H82.9005L82.4937 154.997C82.2699 154.624 81.5896 153.38 80.982 152.232C80.3745 151.084 79.8533 150.116 79.824 150.082C79.7946 150.048 79.6178 150.172 79.4309 150.358C78.8974 150.889 78.9918 152.443 79.6226 153.515C80.1318 154.379 80.1394 154.439 79.8013 154.952C78.6361 156.722 75.4895 156.355 74.3281 154.315C73.0698 152.103 74.4696 149.17 77.3881 147.902C77.9212 147.671 78.3824 147.461 78.4128 147.436C78.443 147.411 77.5303 145.85 76.3842 143.967L74.3004 140.543L76.947 140.484C78.4025 140.452 79.6954 140.465 79.8202 140.512C79.9448 140.56 80.6469 141.786 81.3805 143.237C82.1139 144.689 82.7892 145.922 82.8808 145.979C82.9725 146.035 83.1954 145.871 83.3764 145.614C83.885 144.891 83.7967 143.216 83.1948 142.168L82.6893 141.288L83.1214 140.742C83.9714 139.666 85.7336 139.488 87.1794 140.331ZM25.7092 141.634C25.9082 142.559 25.6995 143.079 25.0278 143.33C24.7153 143.446 23.7047 143.836 22.7819 144.196C21.8592 144.556 20.6323 145.025 20.0556 145.239C19.4789 145.454 18.252 145.917 17.3292 146.268C16.4065 146.62 15.4537 146.908 15.2121 146.908C14.7677 146.909 14.2296 146.439 14.0176 145.865C13.954 145.693 13.8945 145.663 13.8855 145.798C13.8636 146.121 15.9654 151.545 16.2169 151.814C16.3241 151.929 16.314 151.765 16.1942 151.449C15.779 150.354 16.1517 149.968 18.519 149.038C19.7102 148.57 20.8225 148.158 20.9909 148.122C21.2013 148.077 21.5414 148.645 22.0769 149.936C22.5057 150.969 22.8631 151.955 22.8713 152.127C22.8813 152.34 22.1159 152.723 20.4746 153.327C19.1481 153.815 17.9771 154.214 17.872 154.214C17.7671 154.214 17.4198 153.909 17.1004 153.536C16.7368 153.111 16.5791 153.014 16.6787 153.275C18.3206 157.588 18.7696 158.726 18.8778 158.849C18.9489 158.929 19.007 158.602 19.007 158.121C19.007 157.101 19.149 157.005 22.4674 155.765C25.499 154.632 27.0841 154.023 28.2069 153.559C29.4235 153.057 30.0917 153.17 30.5482 153.956C31.0562 154.831 30.8064 154.013 29.702 151.188C28.602 148.374 28.4009 148.033 28.51 149.17C28.5572 149.664 28.4781 150.047 28.298 150.196C28.1398 150.327 27.0415 150.81 25.857 151.269C23.9371 152.014 23.6894 152.066 23.5711 151.75C23.4983 151.556 23.1269 150.602 22.7459 149.63C22.3648 148.659 22.1226 147.796 22.2077 147.712C22.4913 147.433 26.2708 146.074 26.7641 146.074C27.0826 146.074 27.3999 146.308 27.6862 146.753C27.9263 147.126 28.1243 147.368 28.1262 147.29C28.1314 147.083 25.8189 141.199 25.6815 141.07C25.6169 141.01 25.6293 141.264 25.7092 141.634ZM199.935 143.917C198.825 144.461 198.304 145.356 196.431 149.939C194.899 153.686 194.925 153.6 195.583 152.806C195.892 152.432 196.281 152.127 196.447 152.127C196.719 152.127 198.774 152.92 204.923 155.398L206.915 156.2L206.901 157.2C206.884 158.424 206.945 158.328 208.31 154.993C209.39 152.352 209.589 151.592 208.91 152.701C208.681 153.074 208.327 153.38 208.124 153.38C207.92 153.381 206.782 152.993 205.593 152.518C203.727 151.773 203.441 151.595 203.496 151.213C203.552 150.824 203.981 150.668 207.079 149.911C209.016 149.438 210.635 149.016 210.679 148.972C210.841 148.809 212.053 145.636 212.047 145.39C212.043 145.243 211.956 145.278 211.842 145.473C211.733 145.659 211.382 145.916 211.062 146.044C210.407 146.305 205.394 147.535 204.98 147.535C204.806 147.535 204.713 147.228 204.712 146.648C204.71 144.304 202.14 142.835 199.935 143.917ZM119.417 144.064C119.788 144.221 120.356 144.596 120.679 144.898C121.002 145.201 121.309 145.448 121.361 145.448C121.412 145.448 121.455 145.163 121.455 144.815V144.182L123.789 144.241L126.123 144.3L126.087 148.057C126.041 153.01 126.457 154.517 127.756 154.107C128.542 153.859 129.166 151.214 129.233 147.848C129.294 144.782 129.334 144.657 130.339 144.364C131.375 144.063 136.91 144.037 138.127 144.327L138.966 144.527L139.022 149.997L139.078 155.467H136.872H134.667V151.084V146.7H133.946C133.122 146.7 133.195 146.435 132.82 150.8C132.568 153.735 131.969 155.011 130.384 155.982C129.406 156.582 129.237 156.615 127.134 156.615C125.116 156.615 124.804 156.56 123.691 156.017C122.355 155.364 121.74 154.599 121.531 153.332C121.193 151.286 120.182 151.547 118.938 154C118.411 155.04 117.928 155.694 117.511 155.936C116.81 156.343 115.095 156.424 114.219 156.093L113.667 155.884L114.105 155.272C114.346 154.935 114.683 154.264 114.854 153.782C115.025 153.299 115.353 152.602 115.582 152.233L115.998 151.562L115.558 151.166C113.885 149.66 113.859 146.507 115.507 144.936C116.678 143.819 118.092 143.504 119.417 144.064ZM93.4836 144.327C93.8791 144.513 94.3786 144.889 94.594 145.161C95.1099 145.814 95.2398 145.786 95.2398 145.023V144.39L97.4923 144.45L99.7447 144.509L99.7468 148.579C99.7485 152.241 99.7896 152.716 100.157 153.321C100.67 154.164 101.04 154.309 101.655 153.908C102.414 153.414 102.71 151.865 103.125 146.234L103.244 144.62L104.118 144.365C105.149 144.064 110.668 144.04 111.912 144.331L112.751 144.527L112.807 149.997L112.863 155.467H110.658H108.452V151.084V146.7H107.737H107.022L106.894 148.527C106.57 153.187 105.813 155.126 103.946 156.081C103.032 156.549 102.644 156.615 100.802 156.615C98.8591 156.615 98.6141 156.567 97.5628 155.989C96.9374 155.644 96.1774 155.022 95.8739 154.605L95.3222 153.848L94.4657 154.643C92.5319 156.438 90.0828 156.127 88.6716 153.907C87.4785 152.03 87.3585 148.536 88.4134 146.39C89.4408 144.3 91.5823 143.429 93.4836 144.327ZM145.153 146.42C145.153 148.542 145.17 148.628 145.528 148.306C147.216 146.785 150.128 147.137 151.376 149.013C152.221 150.285 152.324 152.45 151.602 153.797C150.432 155.98 147.749 156.503 145.701 154.949L145.031 154.44L144.452 155.05C143.507 156.047 141.159 156.176 140.259 155.281C139.857 154.881 139.853 154.832 140.184 154.468C140.75 153.845 140.958 152.116 140.958 148.029V144.196H143.056H145.153V146.42ZM201.926 146.722C203.299 147.384 203.709 148.414 203.243 150.04C202.84 151.445 202.894 151.44 200.174 150.355C198.807 149.809 197.621 149.303 197.54 149.231C197.309 149.025 198.133 147.379 198.757 146.804C199.473 146.143 200.662 146.112 201.926 146.722ZM118.943 147.113C118.044 148.008 118.177 149.774 119.2 150.53L119.777 150.956L120.354 150.529C121.003 150.048 121.243 149.098 121.002 147.958C120.745 146.742 119.733 146.326 118.943 147.113ZM92.8666 147.493C92.2756 148.143 91.9954 149.847 92.2888 151.008C92.6061 152.265 93.031 152.753 93.8074 152.753C94.2566 152.753 94.5141 152.583 94.8337 152.075C95.4159 151.15 95.3526 148.236 94.7354 147.557C94.2461 147.019 93.3261 146.987 92.8666 147.493ZM145.446 150.148C145.012 150.806 145.023 152.421 145.465 153.092C145.876 153.717 146.872 153.756 147.46 153.171C148.055 152.578 148.05 150.719 147.452 150.079C146.854 149.441 145.89 149.474 145.446 150.148ZM192.957 156.771C192.009 158.407 190.745 160.595 190.148 161.634C189.551 162.673 188.129 164.693 186.989 166.122C185.849 167.551 184.213 169.613 183.355 170.704C182.497 171.794 181.312 173.196 180.723 173.819C180.006 174.577 179.84 174.836 180.221 174.602C181.261 173.962 181.729 174.137 183.691 175.897C185.805 177.795 186.79 178.801 186.66 178.93C186.61 178.98 185.815 178.932 184.893 178.824C183.971 178.715 181.754 178.5 179.966 178.345L176.715 178.062L175.038 179.733C174.115 180.652 173.549 181.326 173.779 181.231C174.01 181.136 174.586 181.053 175.059 181.047C175.89 181.036 176.043 181.153 179.519 184.455C181.499 186.336 183.174 188.098 183.243 188.37C183.317 188.665 183.231 189.073 183.03 189.378C182.363 190.391 182.718 190.183 184.265 188.654C185.878 187.059 186.308 186.417 185.233 187.208C184.219 187.954 183.727 187.668 180.176 184.267C176.36 180.612 176.039 180.933 182.902 181.541C190.679 182.231 190.928 182.246 190.845 182.016C190.802 181.898 188.974 180.093 186.782 178.005C184.59 175.917 182.66 173.987 182.492 173.717C182.172 173.203 182.359 172.169 182.797 172.026C182.913 171.988 183.505 172.333 184.112 172.792C184.72 173.25 185.267 173.626 185.327 173.626C185.387 173.626 185.197 173.218 184.903 172.72C184.2 171.526 184.225 170.757 185.001 169.691C185.348 169.215 185.683 168.825 185.747 168.825C185.811 168.825 186.625 169.412 187.556 170.13C188.487 170.847 189.738 171.81 190.334 172.269C193.698 174.858 194.646 175.741 194.646 176.284C194.646 176.583 194.481 177.013 194.279 177.24C194.078 177.467 194.023 177.615 194.157 177.57C194.425 177.479 198.415 172.521 198.311 172.408C198.276 172.37 198.05 172.534 197.81 172.773C197.569 173.012 197.154 173.208 196.887 173.208C196.585 173.208 195.182 172.256 193.165 170.682C191.384 169.292 189.432 167.778 188.827 167.317C188.221 166.856 187.726 166.4 187.726 166.304C187.726 166.208 188.089 165.749 188.532 165.285C189.246 164.539 189.449 164.442 190.301 164.442C190.83 164.442 191.506 164.533 191.802 164.645C192.654 164.968 192.423 164.615 191.189 163.711C189.955 162.807 189.805 162.49 190.449 162.148C190.77 161.977 191.047 162.018 191.655 162.327C192.77 162.894 200.15 167.15 200.466 167.409C200.798 167.681 200.807 168.663 200.48 168.988C200.344 169.124 200.284 169.288 200.348 169.351C200.412 169.415 201.435 167.796 202.623 165.754C203.81 163.712 205.049 161.594 205.376 161.047C205.703 160.5 205.968 159.983 205.964 159.899C205.957 159.737 203.152 157.554 202.952 157.554C202.887 157.554 203.116 157.995 203.459 158.534C204.48 160.135 204.273 162.186 202.913 163.961C202.622 164.34 202.251 164.651 202.088 164.651C201.856 164.651 197.961 162.547 197.607 162.231C197.403 162.049 198.247 161.138 198.851 160.889C199.39 160.667 199.709 160.662 200.468 160.864C202.23 161.333 201.937 161.111 197.291 158.458C196.101 157.778 195.359 157.656 196.267 158.289C196.51 158.459 196.918 158.934 197.174 159.345C197.588 160.012 197.612 160.182 197.392 160.911C197.257 161.361 197.051 161.728 196.934 161.728C196.714 161.728 192.789 159.529 192.481 159.234C192.386 159.142 192.729 158.414 193.244 157.615C194.484 155.689 195.72 155.09 197.254 155.67C198.263 156.052 197.795 155.552 196.321 154.674C195.513 154.191 194.812 153.797 194.765 153.797C194.718 153.797 193.904 155.135 192.957 156.771ZM32.4818 159.033C31.8189 159.13 28.9877 159.445 26.1903 159.734C21.1946 160.25 21.0901 160.252 20.3177 159.872C19.8851 159.659 19.5313 159.544 19.5313 159.617C19.5313 159.689 20.0011 160.547 20.5751 161.521C21.5538 163.184 21.8881 163.479 21.4284 162.275C21.1231 161.476 21.7002 160.919 23.0512 160.709C24.0998 160.545 24.1797 160.565 24.5362 161.08C25.4038 162.333 26.452 164.206 26.452 164.503C26.452 164.946 24.8298 166.946 24.47 166.946C24.3081 166.946 23.9798 166.699 23.741 166.397C23.5019 166.094 23.3062 165.919 23.3062 166.006C23.3062 166.193 25.2625 169.651 25.9449 170.67L26.4115 171.367L26.3914 170.656C26.3679 169.836 26.3333 169.89 30.9249 163.573C32.7327 161.086 34.2116 158.996 34.2116 158.929C34.2116 158.789 34.1212 158.794 32.4818 159.033ZM29.6823 160.32C29.2845 161.012 27.1678 163.803 27.0359 163.809C26.8714 163.816 24.9674 160.632 25.0733 160.526C25.1505 160.45 28.136 160.126 29.1383 160.086C29.6387 160.066 29.7905 160.131 29.6823 160.32ZM37.0061 164.393C37.8716 165.364 37.5549 165.756 33.0649 169.275C30.7617 171.08 28.7065 172.602 28.498 172.656C28.2795 172.713 27.8362 172.519 27.4519 172.199C26.6051 171.492 26.8031 171.822 28.6228 174.147C32.1654 178.674 33.8572 180.734 33.9862 180.678C34.625 180.4 37.5575 178.491 37.5616 178.352C37.5646 178.253 37.4021 178.238 37.2001 178.318C36.2966 178.673 34.6644 178.896 33.945 178.762C33.0886 178.602 31.6063 177.246 30.9375 176.009C30.47 175.146 30.4547 175.165 33.5852 172.687C39.5785 167.942 39.6398 167.909 40.6181 168.96C40.9008 169.264 41.1323 169.444 41.1323 169.361C41.1323 169.117 37.1368 164.137 36.8685 164.046C36.7337 164.001 36.7955 164.157 37.0061 164.393ZM47.5287 177.77C47.0674 177.978 44.3943 179.067 41.5889 180.191C37.1942 181.951 36.3694 182.218 35.6331 182.12L34.7785 182.006L36.2138 183.445C37.003 184.237 37.6929 184.841 37.7466 184.788C37.8003 184.734 37.6875 184.518 37.496 184.307C36.7152 183.449 37.3003 182.454 38.8588 181.989C39.7123 181.735 39.7264 181.74 40.5831 182.566C41.0583 183.024 41.7772 183.703 42.1809 184.073C42.9831 184.81 42.9908 184.913 42.3629 186.499C41.8684 187.748 41.6216 187.902 40.7913 187.479C40.4314 187.295 41.0319 188.017 42.2818 189.269C43.4331 190.423 44.4457 191.367 44.5319 191.367C44.6181 191.367 44.5874 191.146 44.4639 190.876C44.1621 190.217 44.426 189.309 46.7708 182.939C47.8221 180.083 48.6822 177.665 48.6822 177.565C48.6822 177.305 48.479 177.342 47.5287 177.77ZM44.8011 180.044C44.7181 180.245 44.371 181.161 44.03 182.079C43.689 182.997 43.3346 183.825 43.2425 183.92C43.0347 184.131 40.4595 181.791 40.5625 181.484C40.6414 181.249 44.1835 179.696 44.6675 179.685C44.8569 179.681 44.9016 179.801 44.8011 180.044ZM171.869 182.249C171.396 182.615 169.759 183.9 168.233 185.105C166.706 186.311 165.23 187.438 164.953 187.61C164.666 187.788 164.448 188.123 164.447 188.385C164.447 188.953 164.073 189.16 162.455 189.489C159.976 189.994 158.538 191.081 157.428 193.29C156.775 194.589 156.687 194.95 156.688 196.352C156.688 197.675 156.789 198.152 157.292 199.194C157.976 200.613 159.079 201.75 160.462 202.463C161.845 203.175 164.297 203.138 165.961 202.379C167.657 201.606 169.158 200.144 169.679 198.759C170.065 197.731 170.076 197.003 169.706 197.003C169.624 197.003 169.391 197.526 169.188 198.166C168.715 199.659 167.603 200.793 166.133 201.279C164.501 201.818 163.447 201.468 161.857 199.86C158.969 196.939 158.313 193.047 160.384 191.12C161.899 189.709 164.462 189.754 166.071 191.218C166.86 191.936 166.782 191.532 165.799 189.817C164.778 188.034 164.802 187.61 165.922 187.61C166.418 187.61 166.801 187.982 168.453 190.063C169.523 191.411 170.885 193.126 171.478 193.872C173.48 196.39 173.597 196.717 172.799 197.563C172.548 197.829 172.396 198.046 172.46 198.046C172.57 198.046 176.977 194.649 179.904 192.309L181.205 191.268L180.448 189.909C179.176 187.624 179.186 187.628 179.293 189.477C179.377 190.926 179.331 191.223 178.916 191.891C178.422 192.687 176.547 194.289 176.11 194.289C175.694 194.289 172.626 190.783 172.626 190.308C172.626 190.001 173.548 189.489 174.1 189.489C174.397 189.489 175.087 189.77 175.633 190.115C176.179 190.459 176.668 190.741 176.72 190.741C176.812 190.741 175.674 189.243 173.675 186.732C173.156 186.08 172.665 185.541 172.584 185.535C172.503 185.528 172.619 185.922 172.841 186.41C173.329 187.48 173.355 188.065 172.948 188.847C172.392 189.919 172.123 189.797 170.437 187.711C169.565 186.631 168.851 185.666 168.851 185.566C168.851 185.235 171.192 183.651 172.001 183.435C172.888 183.197 173.53 183.365 174.579 184.108C175.073 184.458 175.19 184.485 175.09 184.227C174.876 183.67 173.165 181.558 172.941 181.572C172.825 181.579 172.343 181.884 171.869 182.249ZM53.4533 182.203C54.2026 183.043 54.0491 183.546 52.4148 185.604C51.5843 186.65 50.3006 188.284 49.5624 189.235C48.8242 190.187 47.9075 191.295 47.5254 191.698C46.8342 192.427 46.8268 192.43 46.0787 192.118C45.665 191.946 45.3267 191.843 45.3267 191.888C45.3267 191.957 48.6088 194.56 52.8929 197.89C53.4468 198.32 53.9791 198.672 54.0755 198.672C54.2987 198.672 57.0709 195.901 57.0709 195.678C57.0709 195.586 56.5322 195.818 55.8739 196.193C54.2548 197.114 53.1125 197.123 51.8196 196.223C50.5548 195.343 49.7308 194.542 49.7308 194.192C49.7308 193.752 56.2222 185.554 56.6861 185.408C56.9139 185.336 57.3247 185.432 57.6238 185.627C57.9165 185.818 58.1948 185.935 58.2422 185.888C58.2898 185.84 57.267 184.97 55.9695 183.954C53.075 181.687 52.8592 181.537 53.4533 182.203ZM65.6893 190.992C65.9886 191.256 66.2893 191.628 66.3573 191.819C66.4353 192.037 65.6596 193.583 64.2618 195.993C63.0412 198.098 61.8116 200.221 61.5294 200.711C60.8536 201.883 60.386 202.127 59.5798 201.726C58.2682 201.075 59.0419 201.745 60.6901 202.688C61.6407 203.231 62.9378 203.98 63.5722 204.35L64.7257 205.024L64.149 204.337C63.8319 203.959 63.5722 203.536 63.5722 203.398C63.5722 203.26 64.2016 202.069 64.9711 200.753C69.4991 193.004 69.2485 193.335 70.3053 193.702C71.0363 193.956 71.7513 194.802 71.7513 195.414C71.7513 195.974 68.0053 204.349 67.4852 204.953C67.1727 205.315 66.9416 205.38 66.2793 205.292C65.8284 205.232 65.4597 205.218 65.4597 205.261C65.4597 205.36 68.4375 206.733 69.074 206.928C69.5024 207.059 69.4924 207.028 68.9725 206.614C68.0669 205.895 68.2047 205.206 70.0735 201.111C70.9963 199.09 71.7513 197.338 71.7513 197.219C71.7513 197.1 71.8354 197.003 71.9379 197.003C72.0407 197.003 72.3307 197.777 72.5824 198.725C75.3377 209.094 75.7181 210.448 75.842 210.325C75.8865 210.281 76.8258 208.228 77.9296 205.763C80.3489 200.36 80.5586 199.922 80.9485 199.455C81.2928 199.043 82.2596 198.975 82.9037 199.318C83.2696 199.513 83.3128 199.675 83.1967 200.414C83.1216 200.891 82.8781 201.892 82.6556 202.638C82.2603 203.963 81.5332 206.521 80.8551 208.973C80.4263 210.524 79.925 211.053 79.0254 210.904C78.2479 210.775 80.64 211.542 83.4525 212.324C87.9497 213.574 90.6595 212.613 92.2303 209.213C93.3479 206.794 93.061 204.1 91.5034 202.384C90.5244 201.305 88.9687 200.552 86.0121 199.724C82.2433 198.668 80.9659 198.257 80.1109 197.823C79.0394 197.279 78.8783 197.316 79.5654 197.95C79.8814 198.242 80.14 198.676 80.14 198.915C80.14 199.393 77.6204 205.143 77.4111 205.143C77.3394 205.143 76.7788 203.147 76.1652 200.707C75.5516 198.268 74.9776 196.08 74.8899 195.845C74.7861 195.567 74.0798 195.134 72.8737 194.607C71.8525 194.161 70.0253 193.217 68.8129 192.509C67.6005 191.8 66.2793 191.061 65.8768 190.867L65.1451 190.513L65.6893 190.992ZM149.378 196.161C147.894 196.744 147.062 197.208 148.036 196.91C148.296 196.831 148.697 196.825 148.928 196.898C149.496 197.078 149.49 198.458 148.908 201.539L148.464 203.883L146.881 202.582C144.315 200.474 143.265 199.487 143.265 199.181C143.265 199.024 143.525 198.754 143.842 198.583C144.159 198.412 144.329 198.268 144.219 198.263C143.848 198.248 138.653 200.236 138.653 200.394C138.652 200.481 138.922 200.551 139.252 200.551C139.899 200.551 140.168 200.741 143.975 203.89C145.294 204.981 146.422 206.014 146.483 206.186C146.544 206.359 146.841 207.153 147.143 207.951C147.796 209.674 147.715 210.27 146.771 210.679C146.4 210.839 146.229 210.974 146.391 210.979C146.65 210.986 147.619 210.629 151.969 208.921L153.017 208.509L151.927 208.628L150.837 208.747L150.424 207.832C150.197 207.329 149.779 206.351 149.496 205.659L148.98 204.4L149.476 201.693C149.749 200.204 150.067 198.469 150.183 197.837C150.3 197.206 150.587 196.431 150.821 196.116C151.346 195.409 151.29 195.411 149.378 196.161ZM87.9076 201.02C89.5547 201.847 90.127 203.719 89.5914 206.53C89.2162 208.499 88.5166 209.975 87.46 211.027C86.554 211.929 86.3557 212.031 85.5078 212.031C84.9885 212.031 84.3145 211.917 84.0097 211.779C83.5064 211.551 83.4672 211.451 83.5834 210.684C83.6536 210.219 83.9548 208.994 84.2528 207.961C84.5508 206.927 85.0116 205.331 85.2769 204.412C85.5419 203.494 85.8725 202.249 86.0113 201.647C86.3032 200.379 86.4999 200.314 87.9076 201.02ZM134.143 201.188C133.681 201.284 131.841 201.702 130.053 202.116C127.505 202.707 125.919 202.933 122.713 203.163C120.464 203.325 118.139 203.513 117.548 203.581L116.471 203.706L116.568 205.102C116.703 207.062 116.836 207.29 117.179 206.152C117.554 204.906 118.383 204.203 119.685 204.025C120.235 203.95 120.706 203.913 120.732 203.942C120.899 204.126 121.471 212.456 121.416 213.909L121.35 215.683L120.616 215.946C119.981 216.173 120.208 216.191 122.293 216.077C124.943 215.932 127.123 215.647 125.916 215.604C125.46 215.587 125.142 215.426 124.942 215.109C124.631 214.618 124.296 211.356 124.054 206.447L123.917 203.682H125.07C126.45 203.682 127.184 204.16 127.768 205.439L128.156 206.291L128.161 204.569C128.165 203.191 128.227 202.847 128.475 202.847C128.987 202.847 129.402 203.715 129.83 205.68C130.233 207.534 130.837 210.142 131.428 212.579C131.793 214.088 131.722 214.355 130.83 214.816L130.158 215.164L130.997 215.044C131.458 214.978 132.921 214.657 134.247 214.33C135.929 213.917 136.429 213.732 135.898 213.719C135.475 213.709 135.014 213.552 134.858 213.365C134.704 213.18 134.33 212.011 134.026 210.766C133.466 208.473 133.484 208.274 134.25 208.274C134.397 208.274 137.117 210.6 139.299 212.591L139.841 213.087L141.782 212.615L143.723 212.144L142.978 211.826C142.568 211.652 141.194 210.59 139.925 209.468L137.617 207.427L138.685 206.402L139.753 205.378L139.66 204.112C139.585 203.069 139.46 202.732 138.953 202.195C137.855 201.033 136.377 200.724 134.143 201.188ZM135.203 202.136C136.044 202.533 136.764 203.863 136.764 205.02C136.764 206.242 136.213 206.962 134.906 207.449C134.281 207.681 133.676 207.84 133.561 207.802C133.338 207.728 132.506 204.752 132.27 203.185L132.129 202.249L133.031 202.049C134.318 201.762 134.421 201.766 135.203 202.136ZM93.889 202.24C93.9533 202.344 94.1704 202.429 94.3713 202.429C95.3243 202.429 95.4314 203.266 94.913 206.657C94.7331 207.833 94.568 209.832 94.546 211.098C94.508 213.268 94.5359 213.439 95.03 214.066C96.1078 215.433 98.9929 216.299 100.83 215.807C102.046 215.481 103.047 214.751 103.479 213.874C103.92 212.979 104.329 210.764 104.663 207.463C104.973 204.394 105.219 203.9 106.442 203.894C106.779 203.892 106.987 203.823 106.905 203.742C106.741 203.579 102.738 203.063 102.598 203.186C102.551 203.228 102.817 203.368 103.19 203.498C104.371 203.907 104.373 203.949 103.611 210.302C103.267 213.168 102.706 214.319 101.381 214.877C100.486 215.254 99.5629 215.236 98.7421 214.826C97.2424 214.076 97.0836 213.273 97.6467 209.282C97.817 208.074 98.0426 206.318 98.1479 205.38C98.2534 204.442 98.456 203.536 98.598 203.365C98.7402 203.195 99.1909 203.056 99.5996 203.056C100.886 203.056 100.224 202.866 97.8482 202.555C94.1595 202.071 93.7644 202.04 93.889 202.24ZM110.205 203.467C109.08 203.728 108.086 204.483 107.628 205.425C107.117 206.475 107.077 207.384 107.498 208.385C107.911 209.37 108.638 209.998 110.9 211.325C113.946 213.112 114.58 214.249 113.259 215.563C112.712 216.108 112.456 216.205 111.571 216.205C110.998 216.205 110.267 216.07 109.946 215.906C108.681 215.254 107.41 213.336 107.405 212.07C107.404 211.92 107.309 211.855 107.194 211.926C107.074 212 106.984 213.052 106.984 214.371C106.984 216.602 106.998 216.675 107.368 216.342C107.867 215.892 108.318 215.906 109.66 216.414C113.099 217.715 116.39 215.54 115.9 212.29C115.709 211.021 114.671 209.944 112.475 208.735C110.21 207.488 109.291 206.653 109.291 205.843C109.291 205.007 109.781 204.386 110.672 204.093C111.294 203.889 111.58 203.907 112.347 204.198C113.392 204.595 114.652 205.92 114.853 206.835C115.148 208.171 115.372 207.589 115.36 205.52C115.35 204.019 115.289 203.511 115.157 203.838C114.924 204.414 114.36 204.439 113.32 203.92C112.372 203.447 111.09 203.261 110.205 203.467Z" fill="white"/>
</svg>
